<svg width="32" height="32" viewBox="0 0 32 32" fill="none" xmlns="http://www.w3.org/2000/svg">
<rect width="32" height="32" fill="#1E1E1E"/>
<g clip-path="url(#clip0_0_1)">
<rect width="1512" height="982" transform="translate(-29 -248)" fill="#111111"/>
<rect x="-45.5" y="-197.5" width="309" height="950" fill="#111111" stroke="#8B8B8B"/>
<path fill-rule="evenodd" clip-rule="evenodd" d="M16 4.33333C16.2652 4.33333 16.5196 4.43869 16.7071 4.62623C16.8947 4.81376 17 5.06812 17 5.33333V26.6667C17 26.9319 16.8947 27.1862 16.7071 27.3738C16.5196 27.5613 16.2652 27.6667 16 27.6667C15.7348 27.6667 15.4804 27.5613 15.2929 27.3738C15.1054 27.1862 15 26.9319 15 26.6667V5.33333C15 5.06812 15.1054 4.81376 15.2929 4.62623C15.4804 4.43869 15.7348 4.33333 16 4.33333ZM10.6667 8.33333C10.9319 8.33333 11.1862 8.43869 11.3738 8.62622C11.5613 8.81376 11.6667 9.06812 11.6667 9.33333V22.6667C11.6667 22.9319 11.5613 23.1862 11.3738 23.3738C11.1862 23.5613 10.9319 23.6667 10.6667 23.6667C10.4015 23.6667 10.1471 23.5613 9.95957 23.3738C9.77203 23.1862 9.66668 22.9319 9.66668 22.6667V9.33333C9.66668 9.06812 9.77203 8.81376 9.95957 8.62622C10.1471 8.43869 10.4015 8.33333 10.6667 8.33333ZM21.3333 8.33333C21.5986 8.33333 21.8529 8.43869 22.0404 8.62622C22.228 8.81376 22.3333 9.06812 22.3333 9.33333V22.6667C22.3333 22.9319 22.228 23.1862 22.0404 23.3738C21.8529 23.5613 21.5986 23.6667 21.3333 23.6667C21.0681 23.6667 20.8138 23.5613 20.6262 23.3738C20.4387 23.1862 20.3333 22.9319 20.3333 22.6667V9.33333C20.3333 9.06812 20.4387 8.81376 20.6262 8.62622C20.8138 8.43869 21.0681 8.33333 21.3333 8.33333ZM5.33334 13.6667C5.59856 13.6667 5.85291 13.772 6.04045 13.9596C6.22799 14.1471 6.33334 14.4014 6.33334 14.6667V17.3333C6.33334 17.5985 6.22799 17.8529 6.04045 18.0404C5.85291 18.228 5.59856 18.3333 5.33334 18.3333C5.06813 18.3333 4.81377 18.228 4.62624 18.0404C4.4387 17.8529 4.33334 17.5985 4.33334 17.3333V14.6667C4.33334 14.4014 4.4387 14.1471 4.62624 13.9596C4.81377 13.772 5.06813 13.6667 5.33334 13.6667ZM26.6667 13.6667C26.9319 13.6667 27.1862 13.772 27.3738 13.9596C27.5613 14.1471 27.6667 14.4014 27.6667 14.6667V17.3333C27.6667 17.5985 27.5613 17.8529 27.3738 18.0404C27.1862 18.228 26.9319 18.3333 26.6667 18.3333C26.4015 18.3333 26.1471 18.228 25.9596 18.0404C25.772 17.8529 25.6667 17.5985 25.6667 17.3333V14.6667C25.6667 14.4014 25.772 14.1471 25.9596 13.9596C26.1471 13.772 26.4015 13.6667 26.6667 13.6667Z" fill="white"/>
</g>
<defs>
<clipPath id="clip0_0_1">
<rect width="1512" height="982" fill="white" transform="translate(-29 -248)"/>
</clipPath>
</defs>
</svg>
