<svg width="24" height="24" viewBox="0 0 24 24" fill="none" xmlns="http://www.w3.org/2000/svg">
<path fill-rule="evenodd" clip-rule="evenodd" d="M12 0.333332C12.2652 0.333332 12.5196 0.438689 12.7071 0.626225C12.8947 0.813762 13 1.06812 13 1.33333V22.6667C13 22.9319 12.8947 23.1862 12.7071 23.3738C12.5196 23.5613 12.2652 23.6667 12 23.6667C11.7348 23.6667 11.4804 23.5613 11.2929 23.3738C11.1054 23.1862 11 22.9319 11 22.6667V1.33333C11 1.06812 11.1054 0.813762 11.2929 0.626225C11.4804 0.438689 11.7348 0.333332 12 0.333332ZM6.66668 4.33333C6.93189 4.33333 7.18625 4.43869 7.37378 4.62622C7.56132 4.81376 7.66668 5.06812 7.66668 5.33333V18.6667C7.66668 18.9319 7.56132 19.1862 7.37378 19.3738C7.18625 19.5613 6.93189 19.6667 6.66668 19.6667C6.40146 19.6667 6.14711 19.5613 5.95957 19.3738C5.77203 19.1862 5.66668 18.9319 5.66668 18.6667V5.33333C5.66668 5.06812 5.77203 4.81376 5.95957 4.62622C6.14711 4.43869 6.40146 4.33333 6.66668 4.33333ZM17.3333 4.33333C17.5986 4.33333 17.8529 4.43869 18.0404 4.62622C18.228 4.81376 18.3333 5.06812 18.3333 5.33333V18.6667C18.3333 18.9319 18.228 19.1862 18.0404 19.3738C17.8529 19.5613 17.5986 19.6667 17.3333 19.6667C17.0681 19.6667 16.8138 19.5613 16.6262 19.3738C16.4387 19.1862 16.3333 18.9319 16.3333 18.6667V5.33333C16.3333 5.06812 16.4387 4.81376 16.6262 4.62622C16.8138 4.43869 17.0681 4.33333 17.3333 4.33333ZM1.33334 9.66667C1.59856 9.66667 1.85291 9.77202 2.04045 9.95956C2.22799 10.1471 2.33334 10.4014 2.33334 10.6667V13.3333C2.33334 13.5985 2.22799 13.8529 2.04045 14.0404C1.85291 14.228 1.59856 14.3333 1.33334 14.3333C1.06813 14.3333 0.813773 14.228 0.626237 14.0404C0.4387 13.8529 0.333344 13.5985 0.333344 13.3333V10.6667C0.333344 10.4014 0.4387 10.1471 0.626237 9.95956C0.813773 9.77202 1.06813 9.66667 1.33334 9.66667ZM22.6667 9.66667C22.9319 9.66667 23.1862 9.77202 23.3738 9.95956C23.5613 10.1471 23.6667 10.4014 23.6667 10.6667V13.3333C23.6667 13.5985 23.5613 13.8529 23.3738 14.0404C23.1862 14.228 22.9319 14.3333 22.6667 14.3333C22.4015 14.3333 22.1471 14.228 21.9596 14.0404C21.772 13.8529 21.6667 13.5985 21.6667 13.3333V10.6667C21.6667 10.4014 21.772 10.1471 21.9596 9.95956C22.1471 9.77202 22.4015 9.66667 22.6667 9.66667Z" fill="white"/>
</svg>
