<svg width="42" height="35" viewBox="0 0 42 35" fill="none" xmlns="http://www.w3.org/2000/svg">
<g id="mingcute:down-line">
<g id="Group">
<path id="Vector" fill-rule="evenodd" clip-rule="evenodd" d="M19.52 22.3885C19.2408 22.6167 18.862 22.7448 18.4671 22.7448C18.0722 22.7448 17.6935 22.6167 17.4142 22.3885L8.98949 15.5042C8.84725 15.392 8.73379 15.2577 8.65574 15.1092C8.57769 14.9607 8.53661 14.801 8.53489 14.6395C8.53317 14.4779 8.57085 14.3176 8.64574 14.1681C8.72062 14.0185 8.8312 13.8826 8.97103 13.7684C9.11086 13.6541 9.27714 13.5637 9.46016 13.5025C9.64319 13.4414 9.83929 13.4106 10.037 13.412C10.2348 13.4134 10.4302 13.4469 10.6119 13.5107C10.7936 13.5745 10.9579 13.6672 11.0953 13.7834L18.4671 19.8074L25.839 13.7834C26.1198 13.5618 26.496 13.4391 26.8865 13.4419C27.277 13.4447 27.6505 13.5726 27.9266 13.7983C28.2027 14.0239 28.3594 14.3291 28.3628 14.6482C28.3662 14.9673 28.216 15.2747 27.9448 15.5042L19.52 22.3885Z" fill="white"/>
</g>
</g>
</svg>
